<?xml version="1.0" encoding="utf-8"?>
<!-- Generator: Adobe Illustrator 21.0.0, SVG Export Plug-In . SVG Version: 6.00 Build 0)  -->
<svg version="1.1" baseProfile="tiny" id="Layer_1" xmlns="http://www.w3.org/2000/svg" xmlns:xlink="http://www.w3.org/1999/xlink"
	 x="0px" y="0px" viewBox="0 0 440 79.2" xml:space="preserve">
<g>
	<g>
		<path fill="#77674D" d="M25.9,6.3L25.9,6.3c-5.8,0-11.1,2.4-14.9,6.2c-3.8,3.8-6.2,9.1-6.2,14.9v25.9c0,5.8,2.4,11.1,6.2,14.9
			c3.8,3.8,9.1,6.2,14.9,6.2h0c5.8,0,11.1-2.4,14.9-6.2c3.8-3.8,6.2-9.1,6.2-14.9V27.4c0-5.8-2.4-11.1-6.2-14.9
			C37,8.7,31.7,6.3,25.9,6.3 M25.9,1.6L25.9,1.6c7.1,0,13.6,2.9,18.3,7.6c4.7,4.7,7.6,11.1,7.6,18.3v25.9c0,7.1-2.9,13.6-7.6,18.3
			c-4.7,4.7-11.1,7.6-18.3,7.6h0c-7.1,0-13.6-2.9-18.3-7.6C2.9,66.9,0,60.4,0,53.3V27.4c0-7.1,2.9-13.6,7.6-18.3
			C12.3,4.5,18.7,1.6,25.9,1.6z"/>
		<path fill="#77674D" d="M51.8,6.3L51.8,6.3c-5.8,0-11.1,2.4-14.9,6.2c-3.8,3.8-6.2,9.1-6.2,14.9v25.9c0,5.8,2.4,11.1,6.2,14.9
			c3.8,3.8,9.1,6.2,14.9,6.2c5.8,0,11.1-2.4,14.9-6.2c3.8-3.8,6.2-9.1,6.2-14.9V27.4c0-5.8-2.4-11.1-6.2-14.9
			C62.9,8.7,57.6,6.3,51.8,6.3 M51.8,1.6L51.8,1.6c7.1,0,13.6,2.9,18.3,7.6c4.7,4.7,7.6,11.1,7.6,18.3v25.9c0,7.1-2.9,13.6-7.6,18.3
			c-4.7,4.7-11.1,7.6-18.3,7.6c-7.1,0-13.6-2.9-18.3-7.6c-4.7-4.7-7.6-11.1-7.6-18.3V27.4c0-7.1,2.9-13.6,7.6-18.3
			C38.2,4.5,44.6,1.6,51.8,1.6z"/>
	</g>
	<rect x="107.4" y="41.2" fill-rule="evenodd" fill="#77674D" width="313" height="2.9"/>
	<g>
		<path fill="#77674D" d="M202.6,79.2V50.9h3.1v12.2H222V50.9h3.1v28.3H222V66.1h-16.3v13.1H202.6z"/>
		<path fill="#77674D" d="M231,60.2c0-3.6,0.7-6.1,2.2-7.6c1.5-1.4,4.1-2.1,8-2.1h3.6c3.9,0,6.5,0.7,8,2.1c1.5,1.4,2.2,3.9,2.2,7.6
			v9.6c0,3.6-0.8,6.1-2.3,7.6s-4.2,2.1-8,2.1h-3.6c-3.8,0-6.5-0.7-8-2.1c-1.5-1.4-2.2-3.9-2.2-7.6V60.2z M243.9,53.5h-1.7
			c-2,0-3.4,0.1-4.2,0.3c-0.8,0.2-1.5,0.6-2.1,1.1c-0.6,0.5-0.9,1.1-1.2,1.9c-0.2,0.8-0.3,2.2-0.3,4.2v8c0,2,0.1,3.4,0.3,4.2
			c0.2,0.8,0.6,1.4,1.2,1.9c0.6,0.5,1.3,0.9,2.1,1.1c0.8,0.2,2.2,0.3,4.2,0.3h1.7c2,0,3.4-0.1,4.2-0.3c0.8-0.2,1.6-0.6,2.1-1.1
			c0.5-0.5,0.9-1.1,1.1-1.9c0.2-0.8,0.3-2.2,0.3-4.2V61c0-2-0.1-3.4-0.3-4.2c-0.2-0.8-0.6-1.5-1.2-1.9c-0.6-0.5-1.3-0.8-2.1-1.1
			C247.3,53.6,245.9,53.5,243.9,53.5z"/>
		<path fill="#77674D" d="M257.1,53.9v-3h21.2v3h-9v25.3h-3.1V53.9H257.1z"/>
		<path fill="#77674D" d="M281.2,79.2V50.9h19.8v3h-16.7v9.3h16.2V66h-16.2v10.2h16.7v3H281.2z"/>
		<path fill="#77674D" d="M306.1,79.2V50.9h3.1v25.3h16v3H306.1z"/>
	</g>
	<path fill-rule="evenodd" fill="#77674D" d="M435.8,7.4l0.1,0.5c0.2,1,1.1,1.7,2.1,1.5c0.9-0.2,1.6-1.2,1.4-2.2l-0.1-0.5l0,0
		c-1.2-5-7.2-6.6-11.6-6.6c-5.2,0-11.8,1.3-11.8,8.3c0,7,6.4,7.4,11.6,7.4c2.9,0,9,0,9,4.5c0,4.7-5.5,5.4-8.8,5.4
		c-2.7,0-7.8-0.8-8.7-4.2l0-0.1l-0.1-0.5c-0.2-1-1.1-1.7-2.1-1.5c-0.9,0.2-1.5,1.1-1.4,2h0c0.8,5.7,7.7,7.4,12.3,7.4
		c5.4,0,12.3-1.4,12.3-8.6c0-7.2-6.8-7.7-12.1-7.7c-2.7,0-8.5,0-8.5-4.2c0-4.4,5.1-5.1,8.2-5.1C430.4,3.2,435,4.1,435.8,7.4"/>
	<path fill="#77674D" d="M225.1,3.6c-1.5,0-3,0.3-4.4,0.9c-1.4,0.6-2.6,1.4-3.6,2.4c-1.1,1-1.9,2.2-2.4,3.5
		c-0.6,1.3-0.9,2.8-0.9,4.3c0,1.5,0.3,2.9,0.9,4.3c0.6,1.3,1.4,2.5,2.4,3.5c2.1,2.1,5,3.3,8,3.3c3,0,5.8-1.2,7.9-3.3
		c1-1,1.8-2.2,2.4-3.5c0.5-1.4,0.8-2.8,0.8-4.3c0-3-1.1-5.7-3.2-7.8C230.8,4.8,228,3.6,225.1,3.6 M225,29.5c-2,0-3.9-0.4-5.8-1.2
		c-1.8-0.8-3.4-1.8-4.7-3.2c-1.3-1.4-2.4-2.9-3.2-4.7c-0.8-1.8-1.2-3.7-1.2-5.7c0-2,0.4-3.9,1.2-5.7c0.8-1.7,1.8-3.3,3.2-4.7
		c1.4-1.4,3-2.4,4.7-3.2c1.8-0.8,3.8-1.2,5.8-1.2c3.9,0,7.6,1.6,10.4,4.4c1.3,1.3,2.4,2.9,3.1,4.7c0.8,1.8,1.1,3.7,1.1,5.7
		c0,2-0.4,3.9-1.1,5.7c-0.7,1.8-1.8,3.4-3.1,4.7C232.6,27.9,228.9,29.5,225,29.5z M181.6,28.8c-1,0-1.8-0.8-1.8-1.8V2.2
		c0-1,0.8-1.8,1.8-1.8h10.8c0.1,0,1,0,2.1,0.3c1.6,0.4,3,1.2,4.1,2.2c0.8,0.8,1.4,1.8,1.9,2.9c0.5,1.2,0.7,2.6,0.7,4.2
		c0,3.4-1.4,6-4.2,7.6c-0.7,0.4-1.4,0.7-2.2,0.9c1.6,1.3,3,3,4.1,5c0.9,1.6,2,1.6,2.1,1.6c1-0.1,1.9,0.5,2,1.5
		c0.1,1-0.5,1.9-1.5,2.1c-0.3,0-1.1,0.1-2.2-0.3c-1-0.4-2.4-1.2-3.5-3.1c-1.3-2.2-2.8-3.9-4.6-5c-1.3-0.8-2.2-1.1-2.3-1.1
		c-0.9-0.2-1.6-1-1.4-2c0.1-0.9,0.9-1.6,1.8-1.6c2.6,0,4.6-0.4,6-1.2c1.6-0.9,2.3-2.3,2.3-4.4c0-1.4-0.3-2.6-0.8-3.6
		c-0.4-0.7-0.9-1.2-1.7-1.7c-1.3-0.7-2.6-0.8-2.7-0.8h-9v23C183.4,28,182.6,28.8,181.6,28.8z M170.8,0.4h-19.5c-1,0-1.8,0.8-1.8,1.8
		c0,1,0.8,1.8,1.8,1.8h8v23c0,1,0.8,1.8,1.8,1.8c1,0,1.8-0.8,1.8-1.8V4h7.9c1,0,1.8-0.8,1.8-1.8C172.6,1.2,171.8,0.4,170.8,0.4z
		 M140.4,25.2h-15.5v-8.8h13.4c1,0,1.8-0.8,1.8-1.8c0-1-0.8-1.8-1.8-1.8h-13.4V4h15.1c1,0,1.8-0.8,1.8-1.8c0-1-0.8-1.8-1.8-1.8h-17
		c-1,0-1.8,0.8-1.8,1.8V27c0,1,0.8,1.8,1.8,1.8h17.3c1,0,1.8-0.8,1.8-1.8C142.2,26,141.4,25.2,140.4,25.2z M112.3,28.7
		c-1,0-1.8-0.8-1.8-1.8V7.6l-8.9,12.2c-0.3,0.5-0.9,0.7-1.4,0.7c-0.6,0-1.1-0.3-1.5-0.7L89.7,7.6v19.3c0,1-0.8,1.8-1.8,1.8
		c-1,0-1.8-0.8-1.8-1.8V2.1c0-0.8,0.5-1.5,1.3-1.7c0.7-0.3,1.6,0,2,0.6l10.7,14.7L110.8,1c0.5-0.6,1.3-0.9,2-0.6
		c0.7,0.3,1.2,0.9,1.2,1.7v24.8C114.1,27.9,113.3,28.7,112.3,28.7z"/>
	<path fill="#77674D" d="M408.3,25.2h-15.5v-8.8h13.4c1,0,1.8-0.8,1.8-1.8c0-1-0.8-1.8-1.8-1.8h-13.4V4h15.1c1,0,1.8-0.8,1.8-1.8
		c0-1-0.8-1.8-1.8-1.8h-17c-1,0-1.8,0.8-1.8,1.8V27c0,1,0.8,1.8,1.8,1.8h17.3c1,0,1.8-0.8,1.8-1.8C410.1,26,409.3,25.2,408.3,25.2
		 M360.5,28.8c-1,0-1.8-0.8-1.8-1.8V2.2c0-1,0.8-1.8,1.8-1.8h10.8c0.1,0,1,0,2.1,0.3c1.6,0.4,3,1.2,4.1,2.2c0.8,0.8,1.4,1.8,1.9,2.9
		c0.5,1.2,0.7,2.6,0.7,4.2c0,3.4-1.4,6-4.2,7.6c-0.7,0.4-1.4,0.7-2.2,0.9c1.6,1.3,3,3,4.1,5c0.9,1.6,2,1.6,2.1,1.6
		c1-0.1,1.9,0.5,2,1.5c0.1,1-0.5,1.9-1.5,2.1c-0.3,0-1.1,0.1-2.2-0.3c-1-0.4-2.4-1.2-3.5-3.1c-1.3-2.2-2.8-3.9-4.6-5
		c-1.3-0.8-2.2-1.1-2.3-1.1c-0.9-0.2-1.6-1-1.4-2c0.1-0.9,0.9-1.6,1.8-1.6c2.6,0,4.6-0.4,6-1.2c1.6-0.9,2.3-2.3,2.3-4.4
		c0-1.4-0.3-2.6-0.8-3.6c-0.4-0.7-0.9-1.2-1.7-1.7c-1.3-0.7-2.6-0.8-2.7-0.8h-8.9v23C362.3,28,361.5,28.8,360.5,28.8z M349.5,28.8
		c-1,0-1.8-0.8-1.8-1.8V2.2c0-1,0.8-1.8,1.8-1.8c1,0,1.8,0.8,1.8,1.8V27C351.3,28,350.5,28.8,349.5,28.8z M320.7,28.8
		c-1,0-1.8-0.8-1.8-1.8V2.2c0-1,0.8-1.8,1.8-1.8h10.8c0.1,0,1,0,2.1,0.3c1.6,0.4,3,1.2,4.1,2.2c0.8,0.8,1.4,1.8,1.9,2.9
		c0.5,1.2,0.7,2.6,0.7,4.2c0,3.4-1.4,6-4.2,7.6c-2,1.1-4.6,1.7-7.8,1.7c-1,0-1.8-0.8-1.8-1.8c0-1,0.8-1.8,1.8-1.8
		c2.6,0,4.6-0.4,6-1.2c1.6-0.9,2.4-2.3,2.4-4.4c0-1.4-0.3-2.6-0.8-3.5c-0.4-0.7-1-1.3-1.7-1.7c-1.3-0.8-2.6-0.8-2.8-0.8h-8.9v23
		C322.5,28,321.7,28.8,320.7,28.8z M309.9,28.7c-1,0-1.8-0.8-1.8-1.8V7.6l-8.9,12.2c-0.3,0.5-0.9,0.7-1.4,0.7
		c-0.6,0-1.1-0.3-1.5-0.7l-8.9-12.2v19.3c0,1-0.8,1.8-1.8,1.8c-1,0-1.8-0.8-1.8-1.8V2.1c0-0.8,0.5-1.5,1.3-1.7c0.7-0.3,1.6,0,2,0.6
		l10.7,14.7L308.4,1c0.5-0.6,1.3-0.9,2-0.6c0.7,0.3,1.2,0.9,1.2,1.7v24.8C311.7,27.9,310.9,28.7,309.9,28.7z M274.7,25.2h-15.5v-8.8
		h13.4c1,0,1.8-0.8,1.8-1.8c0-1-0.8-1.8-1.8-1.8h-13.4V4h15.1c1,0,1.8-0.8,1.8-1.8c0-1-0.8-1.8-1.8-1.8h-17c-1,0-1.8,0.8-1.8,1.8V27
		c0,1,0.8,1.8,1.8,1.8h17.3c1,0,1.8-0.8,1.8-1.8C276.5,26,275.7,25.2,274.7,25.2z"/>
</g>
</svg>
